<?xml version="1.0" standalone="no"?><!DOCTYPE svg PUBLIC "-//W3C//DTD SVG 1.1//EN" "http://www.w3.org/Graphics/SVG/1.1/DTD/svg11.dtd"><svg t="1753278711608" class="icon" viewBox="0 0 1024 1024" version="1.1" xmlns="http://www.w3.org/2000/svg" p-id="9769" xmlns:xlink="http://www.w3.org/1999/xlink" width="128" height="128"><path d="M0 0h1024v1024H0z" fill-opacity="0" p-id="9770"></path><path d="M486.4 725.333333l-405.333333-42.666666 59.733333-200.533334c4.266667-12.8 12.8-21.333333 25.6-21.333333H469.333333c12.8 38.4 29.866667 76.8 51.2 110.933333l-34.133333 153.6z m-55.466667 260.266667H25.6c-8.533333 0-17.066667-4.266667-21.333333-8.533333-4.266667-8.533333-4.266667-17.066667-4.266667-25.6l55.466667-192 413.866666 46.933333-38.4 179.2z m499.2-332.8l38.4 128-123.733333-12.8c25.6-29.866667 46.933333-59.733333 72.533333-89.6 4.266667-12.8 8.533333-17.066667 12.8-25.6z m64 209.066667l25.6 85.333333c4.266667 8.533333 0 17.066667-4.266666 25.6-4.266667 8.533333-12.8 12.8-21.333334 12.8H516.266667l34.133333-170.666667 443.733333 46.933334z" fill="#0278FF" p-id="9771"></path><path d="M750.933333 51.2c149.333333 0 268.8 119.466667 268.8 268.8 0 115.2-72.533333 243.2-136.533333 328.533333-38.4 51.2-76.8 102.4-123.733333 149.333334-4.266667 4.266667-8.533333 4.266667-12.8 4.266666-4.266667 0-8.533333 0-12.8-4.266666-42.666667-46.933333-85.333333-98.133333-123.733334-149.333334-59.733333-85.333333-136.533333-213.333333-136.533333-328.533333 4.266667-145.066667 128-268.8 277.333333-268.8z m0 102.4c-89.6 0-166.4 72.533333-166.4 166.4 0 89.6 72.533333 166.4 166.4 166.4 89.6 0 166.4-72.533333 166.4-166.4s-76.8-166.4-166.4-166.4z" fill="#FFB11E" p-id="9772"></path></svg>